<?xml version="1.0" encoding="iso-8859-1"?>
<!-- Uploaded to: SVG Repo, www.svgrepo.com, Generator: SVG Repo Mixer Tools -->
<svg version="1.1" id="Layer_1" xmlns="http://www.w3.org/2000/svg" xmlns:xlink="http://www.w3.org/1999/xlink" 
	 viewBox="0 0 465.397 465.397" xml:space="preserve">
<path style="fill:#E0623E;" d="M412.68,44.698H240.56c-5.352,0-10.344,2.672-13.312,7.128L200,92.698H32c-17.672,0-32,14.328-32,32
	v216c0,8.84,7.16,16,16,16h304v-176h129.384c11.04,0,18.76-10.912,15.088-21.328l-36.704-104
	C425.512,48.978,419.464,44.698,412.68,44.698z"/>
<path style="fill:#FCB641;" d="M412.68,44.698H240.56c-5.352,0-10.344,2.672-13.312,7.128L200,92.698H32c-17.672,0-32,14.328-32,32
	v216c0,8.84,7.16,16,16,16h304v-176h129.384c11.04,0,18.76-10.912,15.088-21.328l-36.704-104
	C425.512,48.978,419.464,44.698,412.68,44.698z"/>
<g>
	<path style="fill:#AD5F26;" d="M48.808,356.698c-0.528,2.584-0.808,5.256-0.808,8c0,22.088,17.912,40,40,40s40-17.912,40-40
		c0-2.744-0.28-5.416-0.808-8H48.808z"/>
	<path style="fill:#AD5F26;" d="M336.808,356.698c-0.528,2.584-0.808,5.256-0.808,8c0,22.088,17.912,40,40,40s40-17.912,40-40
		c0-2.744-0.28-5.416-0.808-8H336.808z"/>
</g>
<polygon style="fill:#FEF6E8;" points="432,180.698 320,180.698 320,252.698 448,252.698 "/>
<rect x="320" y="252.698" style="fill:#FCB641;" width="128" height="56"/>
<g>
	<path style="fill:#E67F33;" d="M320,356.698h128c8.84,0,16-7.16,16-16v-16c0-8.84-7.16-16-16-16H320V356.698z"/>
	<path style="fill:#E67F33;" d="M288,356.698h-96v-160c0-8.84,7.16-16,16-16h64c8.84,0,16,7.16,16,16V356.698z"/>
</g>
<circle style="fill:#FEF9F7;" cx="240" cy="228.698" r="16"/>
<path style="fill:#FEF6E8;" d="M160,244.698H32v-48c0-8.84,7.16-16,16-16h112V244.698z"/>
<path style="fill:#E67F33;" d="M144,276.698H32v-32h128v16C160,269.538,152.84,276.698,144,276.698z"/>
<path style="fill:#FEF6E8;" d="M385.24,124.698H248.016c-6.712,0-10.44-7.76-6.248-13l19.2-24c1.52-1.896,3.816-3,6.248-3H370.84
	c2.808,0,5.416,1.472,6.856,3.888l14.4,24C395.296,117.914,391.456,124.698,385.24,124.698z"/>
<g>
	<path style="fill:#F2E7D6;" d="M104.696,357.194c0,8.84-7.16,16-16,16s-16-7.16-16-16H104.696z"/>
	<path style="fill:#F2E7D6;" d="M392.696,357.194c0,8.84-7.16,16-16,16s-16-7.16-16-16H392.696z"/>
</g>
<path style="fill:#F0B285;" d="M256,292.698c-4.424,0-8-3.584-8-8v-8c0-4.416,3.576-8,8-8s8,3.584,8,8v8
	C264,289.114,260.424,292.698,256,292.698z"/>
<path style="fill:#FDD185;" d="M160,148.698H32c-4.424,0-8-3.584-8-8s3.576-8,8-8h128c4.424,0,8,3.584,8,8
	S164.424,148.698,160,148.698z"/>
<g>
	<path style="fill:#73390E;" d="M200,420.698H32c-4.424,0-8-3.584-8-8s3.576-8,8-8h168c4.424,0,8,3.584,8,8
		S204.424,420.698,200,420.698z"/>
	<path style="fill:#73390E;" d="M440,420.698H320c-4.424,0-8-3.584-8-8s3.576-8,8-8h120c4.424,0,8,3.584,8,8
		S444.424,420.698,440,420.698z"/>
	<path style="fill:#73390E;" d="M288,420.698h-16c-4.424,0-8-3.584-8-8s3.576-8,8-8h16c4.424,0,8,3.584,8,8
		S292.424,420.698,288,420.698z"/>
</g>
<path style="fill:#FCB641;" d="M416,260.698c-3.352,0-6.472-2.12-7.584-5.472l-8-24c-1.4-4.192,0.864-8.72,5.056-10.12
	c4.232-1.408,8.72,0.872,10.12,5.056l8,24c1.4,4.192-0.864,8.72-5.056,10.12C417.688,260.57,416.832,260.698,416,260.698z"/>
<g>
	<path style="fill:#FDD185;" d="M352,276.698c-4.424,0-8-3.584-8-8v-16c0-4.416,3.576-8,8-8s8,3.584,8,8v16
		C360,273.114,356.424,276.698,352,276.698z"/>
	<path style="fill:#FDD185;" d="M48,324.698H32c-4.424,0-8-3.584-8-8s3.576-8,8-8h16c4.424,0,8,3.584,8,8S52.424,324.698,48,324.698
		z"/>
</g>
</svg>